<svg xmlns="http://www.w3.org/2000/svg" viewBox="0 0 118.11 22.64"><title>Ресурс 1</title><g id="Слой_2" data-name="Слой 2"><g id="Слой_1-2" data-name="Слой 1"><path d="M118.11,11.91v-1A8.13,8.13,0,0,0,117.64,8a5.88,5.88,0,0,0-1.32-2.11,5.58,5.58,0,0,0-2-1.28,7.2,7.2,0,0,0-2.56-.44,6.67,6.67,0,0,0-3.43.86,5.84,5.84,0,0,0-2.26,2.36,7.58,7.58,0,0,0-.8,3.55,7.72,7.72,0,0,0,.79,3.61,5.63,5.63,0,0,0,2.29,2.32,7.29,7.29,0,0,0,3.54.81,8.06,8.06,0,0,0,3-.52,5.23,5.23,0,0,0,2.1-1.47,4.79,4.79,0,0,0,1-2.24l-3.82-.11a1.92,1.92,0,0,1-.49.73,2.08,2.08,0,0,1-.78.45,3.13,3.13,0,0,1-1,.15,2.71,2.71,0,0,1-1.38-.33,2.24,2.24,0,0,1-.9-.93,3,3,0,0,1-.31-1.4v-.12ZM110.6,7.52a2.47,2.47,0,0,1,1.25-.32,2.42,2.42,0,0,1,1.22.3,2,2,0,0,1,.84.81,2.34,2.34,0,0,1,.32,1.18h-4.84a2.37,2.37,0,0,1,.33-1.13A2.22,2.22,0,0,1,110.6,7.52Z"/><path d="M23.31,5.05a6.93,6.93,0,0,0-3.54-.86,7,7,0,0,0-3.54.86A5.82,5.82,0,0,0,14,7.41,7.69,7.69,0,0,0,13.16,11,7.69,7.69,0,0,0,14,14.49a5.91,5.91,0,0,0,2.28,2.37,7.08,7.08,0,0,0,3.54.84,7,7,0,0,0,3.54-.84,5.78,5.78,0,0,0,2.28-2.37,7.57,7.57,0,0,0,.8-3.54,7.57,7.57,0,0,0-.8-3.54A5.7,5.7,0,0,0,23.31,5.05Zm-1.45,7.77a2.88,2.88,0,0,1-.79,1.28,1.89,1.89,0,0,1-1.27.46,2,2,0,0,1-1.31-.46,3,3,0,0,1-.81-1.28,6.07,6.07,0,0,1-.27-1.89A6.07,6.07,0,0,1,17.68,9a2.94,2.94,0,0,1,.81-1.28,1.92,1.92,0,0,1,1.31-.46,1.84,1.84,0,0,1,1.27.46A2.83,2.83,0,0,1,21.86,9a5.78,5.78,0,0,1,.28,1.91A5.78,5.78,0,0,1,21.86,12.82Z"/><polygon points="4.22 0 0 0 0 17.45 11.48 17.45 11.48 14.03 4.22 14.03 4.22 0"/><path d="M37.11,6.61H37a4.4,4.4,0,0,0-.73-1.16,3.66,3.66,0,0,0-1.22-.9,4,4,0,0,0-1.76-.36,4.89,4.89,0,0,0-2.57.72A5.13,5.13,0,0,0,28.8,7.12a8.61,8.61,0,0,0-.73,3.77,8.13,8.13,0,0,0,.71,3.64,4.83,4.83,0,0,0,1.9,2.08,5.35,5.35,0,0,0,2.62.67A5,5,0,0,0,35,17a3.45,3.45,0,0,0,1.25-.75A3,3,0,0,0,37,15.17h.15v2.3a2.06,2.06,0,0,1-.69,1.77,2.82,2.82,0,0,1-1.73.51,4,4,0,0,1-1.16-.16,2.22,2.22,0,0,1-.8-.46,1.64,1.64,0,0,1-.4-.7l-4,.22a3.94,3.94,0,0,0,.91,2,5,5,0,0,0,2.09,1.43,8.94,8.94,0,0,0,3.2.52,9.25,9.25,0,0,0,3.46-.6,5.15,5.15,0,0,0,2.34-1.73,4.6,4.6,0,0,0,.83-2.8V4.36H37.11Zm-.23,6.08a2.58,2.58,0,0,1-.83,1.15,2.1,2.1,0,0,1-1.3.4,2.12,2.12,0,0,1-1.31-.4,2.55,2.55,0,0,1-.81-1.15,5.08,5.08,0,0,1-.28-1.8,5.43,5.43,0,0,1,.27-1.81,2.6,2.6,0,0,1,.82-1.2,2,2,0,0,1,1.31-.43,2,2,0,0,1,1.3.42,2.53,2.53,0,0,1,.83,1.19,5.24,5.24,0,0,1,.29,1.83A5.07,5.07,0,0,1,36.88,12.69Z"/><path d="M103.59,4.18a3,3,0,0,0-1.89.64,3.51,3.51,0,0,0-1.16,1.93h-.14V4.36H96.35V17.45h4.17v-7.1A2.72,2.72,0,0,1,100.85,9a2.46,2.46,0,0,1,.93-.91,2.72,2.72,0,0,1,1.34-.33,6.9,6.9,0,0,1,.85.06,3.77,3.77,0,0,1,.78.16V4.34a3,3,0,0,0-.57-.11A4,4,0,0,0,103.59,4.18Z"/><polygon points="75.03 7.01 68.16 7.01 68.16 0 63.94 0 63.94 17.45 68.16 17.45 68.16 10.44 75.03 10.44 75.03 17.45 79.24 17.45 79.24 0 75.03 0 75.03 7.01"/><path d="M53.57,5.05a7.72,7.72,0,0,0-7.08,0,5.76,5.76,0,0,0-2.28,2.36A7.57,7.57,0,0,0,43.42,11a7.57,7.57,0,0,0,.79,3.54,5.85,5.85,0,0,0,2.28,2.37,7.88,7.88,0,0,0,7.08,0,5.78,5.78,0,0,0,2.28-2.37,7.57,7.57,0,0,0,.8-3.54,7.57,7.57,0,0,0-.8-3.54A5.7,5.7,0,0,0,53.57,5.05Zm-1.45,7.77a3,3,0,0,1-.79,1.28,1.89,1.89,0,0,1-1.27.46,2,2,0,0,1-1.31-.46,2.83,2.83,0,0,1-.81-1.28,5.78,5.78,0,0,1-.28-1.89A5.78,5.78,0,0,1,47.94,9a2.77,2.77,0,0,1,.81-1.28,1.91,1.91,0,0,1,1.31-.46,1.84,1.84,0,0,1,1.27.46A2.92,2.92,0,0,1,52.12,9a5.78,5.78,0,0,1,.28,1.91A5.78,5.78,0,0,1,52.12,12.82Z"/><path d="M92.44,5.91a5.58,5.58,0,0,0-2-1.28,7.24,7.24,0,0,0-2.56-.44,6.64,6.64,0,0,0-3.43.86,5.78,5.78,0,0,0-2.26,2.36,7.46,7.46,0,0,0-.8,3.55,7.72,7.72,0,0,0,.79,3.61,5.6,5.6,0,0,0,2.28,2.32A7.36,7.36,0,0,0,88,17.7a8.06,8.06,0,0,0,3-.52,5.23,5.23,0,0,0,2.1-1.47,4.79,4.79,0,0,0,1.05-2.24l-3.83-.11a1.9,1.9,0,0,1-.48.73,2.16,2.16,0,0,1-.78.45,3.13,3.13,0,0,1-1,.15,2.71,2.71,0,0,1-1.38-.33,2.24,2.24,0,0,1-.9-.93A3,3,0,0,1,85.5,12v-.12h8.72v-1A7.91,7.91,0,0,0,93.75,8,5.86,5.86,0,0,0,92.44,5.91ZM85.51,9.49a2.33,2.33,0,0,1,1.2-2A2.51,2.51,0,0,1,88,7.2a2.45,2.45,0,0,1,1.22.3,2.11,2.11,0,0,1,.84.81,2.45,2.45,0,0,1,.32,1.18Z"/></g></g></svg>